<svg width="303" height="57" viewBox="0 0 303 57" fill="none" xmlns="http://www.w3.org/2000/svg">
<path d="M24.354 29.2237V39.7537C23.034 40.7257 21.624 41.4397 20.124 41.8957C18.636 42.3397 17.04 42.5617 15.336 42.5617C13.212 42.5617 11.286 42.2317 9.558 41.5717C7.842 40.9117 6.372 39.9937 5.148 38.8177C3.936 37.6417 3 36.2377 2.34 34.6057C1.68 32.9737 1.35 31.1917 1.35 29.2597C1.35 27.3037 1.668 25.5097 2.304 23.8777C2.94 22.2457 3.84 20.8417 5.004 19.6657C6.18 18.4897 7.602 17.5777 9.27 16.9297C10.938 16.2817 12.81 15.9577 14.886 15.9577C15.942 15.9577 16.926 16.0417 17.838 16.2097C18.762 16.3777 19.614 16.6117 20.394 16.9117C21.186 17.1997 21.906 17.5537 22.554 17.9737C23.202 18.3937 23.796 18.8557 24.336 19.3597L22.95 21.5557C22.734 21.9037 22.452 22.1197 22.104 22.2037C21.756 22.2757 21.378 22.1857 20.97 21.9337C20.574 21.7057 20.178 21.4777 19.782 21.2497C19.386 21.0217 18.942 20.8237 18.45 20.6557C17.97 20.4877 17.424 20.3497 16.812 20.2417C16.212 20.1337 15.516 20.0797 14.724 20.0797C13.44 20.0797 12.276 20.2957 11.232 20.7277C10.2 21.1597 9.318 21.7777 8.586 22.5817C7.854 23.3857 7.29 24.3517 6.894 25.4797C6.498 26.6077 6.3 27.8677 6.3 29.2597C6.3 30.7477 6.51 32.0797 6.93 33.2557C7.362 34.4197 7.962 35.4097 8.73 36.2257C9.51 37.0297 10.446 37.6477 11.538 38.0797C12.63 38.4997 13.848 38.7097 15.192 38.7097C16.152 38.7097 17.01 38.6077 17.766 38.4037C18.522 38.1997 19.26 37.9237 19.98 37.5757V32.8597H16.704C16.392 32.8597 16.146 32.7757 15.966 32.6077C15.798 32.4277 15.714 32.2117 15.714 31.9597V29.2237H24.354ZM32.2298 27.0097C32.8058 25.9057 33.4898 25.0417 34.2818 24.4177C35.0738 23.7817 36.0098 23.4637 37.0898 23.4637C37.9418 23.4637 38.6258 23.6497 39.1418 24.0217L38.8538 27.3517C38.7938 27.5677 38.7038 27.7237 38.5838 27.8197C38.4758 27.9037 38.3258 27.9457 38.1338 27.9457C37.9538 27.9457 37.6838 27.9157 37.3238 27.8557C36.9758 27.7957 36.6338 27.7657 36.2978 27.7657C35.8058 27.7657 35.3678 27.8377 34.9838 27.9817C34.5998 28.1257 34.2518 28.3357 33.9398 28.6117C33.6398 28.8757 33.3698 29.1997 33.1298 29.5837C32.9018 29.9677 32.6858 30.4057 32.4818 30.8977V42.2737H28.0358V23.8057H30.6458C31.1018 23.8057 31.4198 23.8897 31.5998 24.0577C31.7798 24.2137 31.8998 24.5017 31.9598 24.9217L32.2298 27.0097ZM49.1102 23.5177C50.4782 23.5177 51.7202 23.7397 52.8362 24.1837C53.9642 24.6277 54.9242 25.2577 55.7162 26.0737C56.5202 26.8897 57.1382 27.8857 57.5702 29.0617C58.0022 30.2377 58.2182 31.5517 58.2182 33.0037C58.2182 34.4677 58.0022 35.7877 57.5702 36.9637C57.1382 38.1397 56.5202 39.1417 55.7162 39.9697C54.9242 40.7977 53.9642 41.4337 52.8362 41.8777C51.7202 42.3217 50.4782 42.5437 49.1102 42.5437C47.7302 42.5437 46.4762 42.3217 45.3482 41.8777C44.2202 41.4337 43.2542 40.7977 42.4502 39.9697C41.6582 39.1417 41.0402 38.1397 40.5962 36.9637C40.1642 35.7877 39.9482 34.4677 39.9482 33.0037C39.9482 31.5517 40.1642 30.2377 40.5962 29.0617C41.0402 27.8857 41.6582 26.8897 42.4502 26.0737C43.2542 25.2577 44.2202 24.6277 45.3482 24.1837C46.4762 23.7397 47.7302 23.5177 49.1102 23.5177ZM49.1102 39.1237C50.6462 39.1237 51.7802 38.6077 52.5122 37.5757C53.2562 36.5437 53.6282 35.0317 53.6282 33.0397C53.6282 31.0477 53.2562 29.5297 52.5122 28.4857C51.7802 27.4417 50.6462 26.9197 49.1102 26.9197C47.5502 26.9197 46.3922 27.4477 45.6362 28.5037C44.8922 29.5477 44.5202 31.0597 44.5202 33.0397C44.5202 35.0197 44.8922 36.5317 45.6362 37.5757C46.3922 38.6077 47.5502 39.1237 49.1102 39.1237ZM74.8401 27.7117C74.7081 27.8797 74.5761 28.0117 74.4441 28.1077C74.3241 28.2037 74.1441 28.2517 73.9041 28.2517C73.6761 28.2517 73.4541 28.1857 73.2381 28.0537C73.0221 27.9097 72.7641 27.7537 72.4641 27.5857C72.1641 27.4057 71.8041 27.2497 71.3841 27.1177C70.9761 26.9737 70.4661 26.9017 69.8541 26.9017C69.0741 26.9017 68.3901 27.0457 67.8021 27.3337C67.2141 27.6097 66.7221 28.0117 66.3261 28.5397C65.9421 29.0677 65.6541 29.7097 65.4621 30.4657C65.2701 31.2097 65.1741 32.0557 65.1741 33.0037C65.1741 33.9877 65.2761 34.8637 65.4801 35.6317C65.6961 36.3997 66.0021 37.0477 66.3981 37.5757C66.7941 38.0917 67.2741 38.4877 67.8381 38.7637C68.4021 39.0277 69.0381 39.1597 69.7461 39.1597C70.4541 39.1597 71.0241 39.0757 71.4561 38.9077C71.9001 38.7277 72.2721 38.5357 72.5721 38.3317C72.8721 38.1157 73.1301 37.9237 73.3461 37.7557C73.5741 37.5757 73.8261 37.4857 74.1021 37.4857C74.4621 37.4857 74.7321 37.6237 74.9121 37.8997L76.1901 39.5197C75.6981 40.0957 75.1641 40.5817 74.5881 40.9777C74.0121 41.3617 73.4121 41.6737 72.7881 41.9137C72.1761 42.1417 71.5401 42.3037 70.8801 42.3997C70.2321 42.4957 69.5841 42.5437 68.9361 42.5437C67.7961 42.5437 66.7221 42.3337 65.7141 41.9137C64.7061 41.4817 63.8241 40.8577 63.0681 40.0417C62.3121 39.2257 61.7121 38.2297 61.2681 37.0537C60.8361 35.8657 60.6201 34.5157 60.6201 33.0037C60.6201 31.6477 60.8121 30.3937 61.1961 29.2417C61.5921 28.0777 62.1681 27.0757 62.9241 26.2357C63.6801 25.3837 64.6161 24.7177 65.7321 24.2377C66.8481 23.7577 68.1321 23.5177 69.5841 23.5177C70.9641 23.5177 72.1701 23.7397 73.2021 24.1837C74.2461 24.6277 75.1821 25.2637 76.0101 26.0917L74.8401 27.7117ZM90.5588 30.9157C90.5588 30.3397 90.4748 29.7997 90.3068 29.2957C90.1508 28.7797 89.9108 28.3297 89.5868 27.9457C89.2628 27.5617 88.8488 27.2617 88.3448 27.0457C87.8528 26.8177 87.2768 26.7037 86.6168 26.7037C85.3328 26.7037 84.3188 27.0697 83.5748 27.8017C82.8428 28.5337 82.3748 29.5717 82.1708 30.9157H90.5588ZM82.0808 33.5977C82.1528 34.5457 82.3208 35.3677 82.5848 36.0637C82.8488 36.7477 83.1968 37.3177 83.6288 37.7737C84.0608 38.2177 84.5708 38.5537 85.1588 38.7817C85.7588 38.9977 86.4188 39.1057 87.1388 39.1057C87.8588 39.1057 88.4768 39.0217 88.9928 38.8537C89.5208 38.6857 89.9768 38.4997 90.3608 38.2957C90.7568 38.0917 91.0988 37.9057 91.3868 37.7377C91.6868 37.5697 91.9748 37.4857 92.2508 37.4857C92.6228 37.4857 92.8988 37.6237 93.0788 37.8997L94.3568 39.5197C93.8648 40.0957 93.3128 40.5817 92.7008 40.9777C92.0888 41.3617 91.4468 41.6737 90.7748 41.9137C90.1148 42.1417 89.4368 42.3037 88.7408 42.3997C88.0568 42.4957 87.3908 42.5437 86.7428 42.5437C85.4588 42.5437 84.2648 42.3337 83.1608 41.9137C82.0568 41.4817 81.0968 40.8517 80.2808 40.0237C79.4648 39.1837 78.8228 38.1517 78.3548 36.9277C77.8868 35.6917 77.6528 34.2637 77.6528 32.6437C77.6528 31.3837 77.8568 30.2017 78.2648 29.0977C78.6728 27.9817 79.2548 27.0157 80.0108 26.1997C80.7788 25.3717 81.7088 24.7177 82.8008 24.2377C83.9048 23.7577 85.1468 23.5177 86.5268 23.5177C87.6908 23.5177 88.7648 23.7037 89.7488 24.0757C90.7328 24.4477 91.5788 24.9937 92.2868 25.7137C92.9948 26.4217 93.5468 27.2977 93.9428 28.3417C94.3508 29.3737 94.5548 30.5557 94.5548 31.8877C94.5548 32.5597 94.4828 33.0157 94.3388 33.2557C94.1948 33.4837 93.9188 33.5977 93.5108 33.5977H82.0808ZM102.085 27.0097C102.661 25.9057 103.345 25.0417 104.137 24.4177C104.929 23.7817 105.865 23.4637 106.945 23.4637C107.797 23.4637 108.481 23.6497 108.997 24.0217L108.709 27.3517C108.649 27.5677 108.559 27.7237 108.439 27.8197C108.331 27.9037 108.181 27.9457 107.989 27.9457C107.809 27.9457 107.539 27.9157 107.179 27.8557C106.831 27.7957 106.489 27.7657 106.153 27.7657C105.661 27.7657 105.223 27.8377 104.839 27.9817C104.455 28.1257 104.107 28.3357 103.795 28.6117C103.495 28.8757 103.225 29.1997 102.985 29.5837C102.757 29.9677 102.541 30.4057 102.337 30.8977V42.2737H97.8913V23.8057H100.501C100.957 23.8057 101.275 23.8897 101.455 24.0577C101.635 24.2137 101.755 24.5017 101.815 24.9217L102.085 27.0097ZM128.097 23.8057L118.035 47.3497C117.903 47.6617 117.729 47.8957 117.513 48.0517C117.309 48.2197 116.991 48.3037 116.559 48.3037H113.247L116.703 40.8877L109.233 23.8057H113.139C113.487 23.8057 113.757 23.8897 113.949 24.0577C114.153 24.2257 114.303 24.4177 114.399 24.6337L118.323 34.2097C118.455 34.5337 118.563 34.8577 118.647 35.1817C118.743 35.5057 118.833 35.8357 118.917 36.1717C119.025 35.8357 119.133 35.5057 119.241 35.1817C119.349 34.8457 119.469 34.5157 119.601 34.1917L123.309 24.6337C123.405 24.3937 123.561 24.1957 123.777 24.0397C124.005 23.8837 124.257 23.8057 124.533 23.8057H128.097Z" fill="#62B146"/>
<path d="M142.133 9.29943C140.713 8.77783 139.203 8.54541 137.692 8.61581C136.181 8.68622 134.699 9.05805 133.333 9.70943L132.983 9.87943C129.893 11.5694 127.863 14.9394 126.103 19.3094C124.484 23.3207 123.317 27.4998 122.623 31.7694C121.353 37.5094 119.843 45.7694 120.013 52.2294C120.013 53.7694 120.213 55.9994 121.473 56.5694C122.733 57.1394 124.843 55.5694 125.953 54.5694C131.312 49.7902 136.115 44.4231 140.273 38.5694C145.723 30.6594 146.933 28.1094 147.803 25.2294C149.803 18.6694 148.523 15.5894 148.133 14.7594C146.878 12.2595 144.74 10.314 142.133 9.29943V9.29943Z" fill="#F36B26"/>
<path d="M147.488 3.31992C147.913 2.33638 147.46 1.19454 146.477 0.769536C145.493 0.344533 144.351 0.797312 143.926 1.78085L140.979 8.60131C140.554 9.58484 141.007 10.7267 141.99 11.1517C142.974 11.5767 144.116 11.1239 144.541 10.1404L147.488 3.31992Z" fill="#62B146"/>
<mask id="mask0" mask-type="alpha" maskUnits="userSpaceOnUse" x="120" y="8" width="29" height="49">
<path d="M142.133 9.29943C140.713 8.77783 139.203 8.54541 137.692 8.61581C136.181 8.68622 134.699 9.05805 133.333 9.70943L132.983 9.87943C129.893 11.5694 127.863 14.9394 126.103 19.3094C124.484 23.3207 123.317 27.4998 122.623 31.7694C121.353 37.5094 119.843 45.7694 120.013 52.2294C120.013 53.7694 120.213 55.9994 121.473 56.5694C122.733 57.1394 124.843 55.5694 125.953 54.5694C131.312 49.7902 136.115 44.4231 140.273 38.5694C145.723 30.6594 146.933 28.1094 147.803 25.2294C149.803 18.6694 148.523 15.5894 148.133 14.7594C146.878 12.2595 144.74 10.314 142.133 9.29943V9.29943Z" fill="#F36B26"/>
</mask>
<g mask="url(#mask0)">
<path d="M126.103 19.3096L134.793 22.9096" stroke="#FFDD50" stroke-width="2" stroke-miterlimit="10" stroke-linecap="round"/>
<path d="M120.173 27.1996L129.383 30.9096" stroke="#FFDD50" stroke-width="2" stroke-miterlimit="10" stroke-linecap="round"/>
<path d="M138.123 31.2695L146.833 34.8795" stroke="#FFDD50" stroke-width="2" stroke-miterlimit="10" stroke-linecap="round"/>
<path d="M134.223 40.8296L142.333 44.1796" stroke="#FFDD50" stroke-width="2" stroke-miterlimit="10" stroke-linecap="round"/>
</g>
<path d="M149.938 9.43127C150.934 9.03633 151.421 7.90876 151.026 6.91277C150.631 5.91678 149.504 5.42954 148.508 5.82448L141.601 8.56326C140.605 8.95821 140.118 10.0858 140.513 11.0818C140.907 12.0778 142.035 12.565 143.031 12.1701L149.938 9.43127Z" fill="#62B146"/>
<path d="M140.523 11.0875C140.918 12.0835 142.046 12.5707 143.042 12.1758C144.038 11.7809 144.525 10.6533 144.13 9.6573L141.391 2.7505C140.996 1.75451 139.869 1.26727 138.873 1.66221C137.877 2.05715 137.39 3.18472 137.785 4.18071L140.523 11.0875Z" fill="#62B146"/>
<path d="M168.336 16.8095L155.52 42.6035H152.478L145.962 16.8095H148.662C148.962 16.8095 149.196 16.8875 149.364 17.0435C149.544 17.1995 149.652 17.3915 149.688 17.6195L154.008 36.0515C154.104 36.4355 154.194 36.8615 154.278 37.3295C154.362 37.7855 154.434 38.2655 154.494 38.7695C154.662 38.2655 154.836 37.7855 155.016 37.3295C155.196 36.8615 155.388 36.4355 155.592 36.0515L164.394 17.6195C164.49 17.4155 164.646 17.2295 164.862 17.0615C165.09 16.8935 165.348 16.8095 165.636 16.8095H168.336ZM177.734 26.6015C177.47 26.5415 177.206 26.5055 176.942 26.4935C176.69 26.4695 176.438 26.4575 176.186 26.4575C175.466 26.4575 174.77 26.5775 174.098 26.8175C173.426 27.0455 172.796 27.3695 172.208 27.7895C171.62 28.2095 171.086 28.7135 170.606 29.3015C170.126 29.8775 169.712 30.5135 169.364 31.2095C169.028 31.9055 168.764 32.6495 168.572 33.4415C168.38 34.2215 168.284 35.0255 168.284 35.8535C168.284 38.7455 169.208 40.1915 171.056 40.1915C171.644 40.1915 172.22 40.0115 172.784 39.6515C173.348 39.2795 173.882 38.7695 174.386 38.1215C174.902 37.4615 175.376 36.6875 175.808 35.7995C176.24 34.8995 176.624 33.9155 176.96 32.8475L177.734 26.6015ZM176.51 37.7975C176.078 38.5655 175.61 39.2615 175.106 39.8855C174.614 40.5095 174.086 41.0435 173.522 41.4875C172.97 41.9195 172.382 42.2555 171.758 42.4955C171.146 42.7355 170.51 42.8555 169.85 42.8555C169.13 42.8555 168.476 42.7175 167.888 42.4415C167.3 42.1535 166.796 41.7395 166.376 41.1995C165.968 40.6475 165.65 39.9755 165.422 39.1835C165.194 38.3795 165.08 37.4615 165.08 36.4295C165.08 35.3495 165.212 34.2995 165.476 33.2795C165.752 32.2475 166.136 31.2755 166.628 30.3635C167.132 29.4515 167.732 28.6175 168.428 27.8615C169.124 27.0935 169.898 26.4335 170.75 25.8815C171.614 25.3175 172.538 24.8855 173.522 24.5855C174.506 24.2735 175.538 24.1175 176.618 24.1175C177.398 24.1175 178.154 24.1835 178.886 24.3155C179.63 24.4355 180.362 24.6515 181.082 24.9635L178.904 42.6035H177.248C176.828 42.6035 176.54 42.4955 176.384 42.2795C176.24 42.0635 176.168 41.7995 176.168 41.4875L176.51 37.7975ZM188.218 28.9775C189.19 27.3695 190.288 26.1575 191.512 25.3415C192.736 24.5135 193.996 24.0995 195.292 24.0995C196.06 24.0995 196.732 24.2555 197.308 24.5675C197.896 24.8675 198.37 25.3115 198.73 25.8995C199.102 26.4875 199.354 27.2135 199.486 28.0775C199.618 28.9295 199.618 29.9015 199.486 30.9935L198.118 42.6035H194.932L196.3 30.9935C196.468 29.5535 196.378 28.4915 196.03 27.8075C195.682 27.1115 195.04 26.7635 194.104 26.7635C193.528 26.7635 192.94 26.9195 192.34 27.2315C191.752 27.5435 191.182 27.9875 190.63 28.5635C190.078 29.1395 189.562 29.8355 189.082 30.6515C188.614 31.4555 188.212 32.3555 187.876 33.3515L186.832 42.6035H183.628L185.824 24.3515H187.408C188.128 24.3515 188.488 24.7115 188.488 25.4315L188.218 28.9775ZM216.38 39.3275C215.756 40.0115 215.162 40.5815 214.598 41.0375C214.034 41.4935 213.47 41.8595 212.906 42.1355C212.342 42.3995 211.754 42.5855 211.142 42.6935C210.542 42.8015 209.894 42.8555 209.198 42.8555C208.142 42.8555 207.206 42.6755 206.39 42.3155C205.586 41.9555 204.908 41.4515 204.356 40.8035C203.816 40.1435 203.402 39.3575 203.114 38.4455C202.838 37.5215 202.7 36.5075 202.7 35.4035C202.7 33.9275 202.928 32.5115 203.384 31.1555C203.852 29.7995 204.5 28.5995 205.328 27.5555C206.156 26.5115 207.14 25.6775 208.28 25.0535C209.432 24.4295 210.686 24.1175 212.042 24.1175C213.254 24.1175 214.268 24.3335 215.084 24.7655C215.9 25.1855 216.614 25.8035 217.226 26.6195L216.218 27.8255C216.134 27.9215 216.038 27.9995 215.93 28.0595C215.834 28.1195 215.72 28.1495 215.588 28.1495C215.42 28.1495 215.252 28.0775 215.084 27.9335C214.928 27.7775 214.718 27.6095 214.454 27.4295C214.19 27.2375 213.86 27.0695 213.464 26.9255C213.08 26.7695 212.582 26.6915 211.97 26.6915C211.142 26.6915 210.362 26.9195 209.63 27.3755C208.898 27.8195 208.256 28.4315 207.704 29.2115C207.152 29.9915 206.714 30.9155 206.39 31.9835C206.078 33.0515 205.922 34.1975 205.922 35.4215C205.922 36.1655 206.006 36.8435 206.174 37.4555C206.342 38.0555 206.594 38.5715 206.93 39.0035C207.266 39.4235 207.674 39.7535 208.154 39.9935C208.646 40.2215 209.216 40.3355 209.864 40.3355C210.668 40.3355 211.34 40.2155 211.88 39.9755C212.432 39.7355 212.894 39.4775 213.266 39.2015C213.638 38.9135 213.95 38.6495 214.202 38.4095C214.466 38.1695 214.724 38.0495 214.976 38.0495C215.204 38.0495 215.408 38.1515 215.588 38.3555L216.38 39.3275ZM225.806 40.3535C226.682 40.3535 227.474 40.1135 228.182 39.6335C228.902 39.1535 229.514 38.5175 230.018 37.7255C230.534 36.9215 230.93 35.9975 231.206 34.9535C231.482 33.9095 231.62 32.8175 231.62 31.6775C231.62 29.9975 231.284 28.7375 230.612 27.8975C229.952 27.0455 228.998 26.6195 227.75 26.6195C226.862 26.6195 226.058 26.8595 225.338 27.3395C224.63 27.8075 224.024 28.4375 223.52 29.2295C223.016 30.0215 222.626 30.9395 222.35 31.9835C222.074 33.0275 221.936 34.1195 221.936 35.2595C221.936 36.9395 222.266 38.2115 222.926 39.0755C223.586 39.9275 224.546 40.3535 225.806 40.3535ZM225.5 42.8555C224.504 42.8555 223.592 42.6875 222.764 42.3515C221.936 42.0035 221.222 41.5055 220.622 40.8575C220.022 40.2095 219.554 39.4175 219.218 38.4815C218.882 37.5455 218.714 36.4775 218.714 35.2775C218.714 33.7415 218.954 32.2955 219.434 30.9395C219.914 29.5835 220.574 28.4015 221.414 27.3935C222.254 26.3735 223.238 25.5695 224.366 24.9815C225.506 24.3935 226.73 24.0995 228.038 24.0995C229.034 24.0995 229.946 24.2735 230.774 24.6215C231.602 24.9575 232.316 25.4495 232.916 26.0975C233.516 26.7455 233.984 27.5375 234.32 28.4735C234.656 29.4095 234.824 30.4715 234.824 31.6595C234.824 33.1835 234.584 34.6235 234.104 35.9795C233.624 37.3355 232.964 38.5235 232.124 39.5435C231.296 40.5635 230.312 41.3735 229.172 41.9735C228.032 42.5615 226.808 42.8555 225.5 42.8555ZM253.87 24.3695L251.674 42.6035H250.09C249.31 42.6035 248.92 42.2195 248.92 41.4515L249.19 38.1215C248.23 39.6815 247.144 40.8635 245.932 41.6675C244.732 42.4595 243.496 42.8555 242.224 42.8555C241.456 42.8555 240.778 42.7055 240.19 42.4055C239.602 42.0935 239.122 41.6435 238.75 41.0555C238.39 40.4675 238.144 39.7475 238.012 38.8955C237.88 38.0435 237.886 37.0655 238.03 35.9615L239.398 24.3695H242.584L241.216 35.9615C241.048 37.3895 241.132 38.4515 241.468 39.1475C241.816 39.8435 242.464 40.1915 243.412 40.1915C243.964 40.1915 244.534 40.0415 245.122 39.7415C245.71 39.4415 246.274 39.0155 246.814 38.4635C247.354 37.9115 247.858 37.2455 248.326 36.4655C248.806 35.6735 249.214 34.7975 249.55 33.8375L250.684 24.3695H253.87ZM273.159 24.3695L264.015 42.6035H261.351L256.635 24.3695H259.227C259.467 24.3695 259.659 24.4355 259.803 24.5675C259.947 24.6995 260.043 24.8555 260.091 25.0355L262.791 36.7715C262.863 37.2275 262.923 37.6775 262.971 38.1215C263.019 38.5655 263.061 39.0155 263.097 39.4715C263.229 39.0275 263.373 38.5835 263.529 38.1395C263.685 37.6955 263.865 37.2395 264.069 36.7715L269.703 25.0355C269.799 24.8435 269.931 24.6875 270.099 24.5675C270.267 24.4355 270.459 24.3695 270.675 24.3695H273.159ZM282.512 26.4215C281.756 26.4215 281.06 26.5775 280.424 26.8895C279.788 27.2015 279.224 27.6335 278.732 28.1855C278.24 28.7255 277.82 29.3675 277.472 30.1115C277.124 30.8435 276.854 31.6355 276.662 32.4875C278.51 32.2595 279.992 32.0015 281.108 31.7135C282.224 31.4135 283.082 31.0955 283.682 30.7595C284.282 30.4115 284.678 30.0395 284.87 29.6435C285.062 29.2475 285.158 28.8335 285.158 28.4015C285.158 28.1855 285.11 27.9635 285.014 27.7355C284.918 27.4955 284.762 27.2795 284.546 27.0875C284.342 26.8955 284.072 26.7395 283.736 26.6195C283.4 26.4875 282.992 26.4215 282.512 26.4215ZM287.588 39.2375C286.976 39.8735 286.376 40.4195 285.788 40.8755C285.2 41.3195 284.6 41.6915 283.988 41.9915C283.388 42.2915 282.752 42.5075 282.08 42.6395C281.42 42.7835 280.706 42.8555 279.938 42.8555C278.894 42.8555 277.958 42.6815 277.13 42.3335C276.302 41.9855 275.6 41.4935 275.024 40.8575C274.448 40.2095 274.004 39.4295 273.692 38.5175C273.38 37.6055 273.224 36.5855 273.224 35.4575C273.224 34.5215 273.32 33.5915 273.512 32.6675C273.716 31.7315 274.004 30.8435 274.376 30.0035C274.76 29.1635 275.222 28.3835 275.762 27.6635C276.314 26.9435 276.938 26.3255 277.634 25.8095C278.342 25.2815 279.116 24.8675 279.956 24.5675C280.808 24.2675 281.72 24.1175 282.692 24.1175C283.616 24.1175 284.414 24.2495 285.086 24.5135C285.758 24.7775 286.31 25.1135 286.742 25.5215C287.174 25.9295 287.492 26.3795 287.696 26.8715C287.912 27.3635 288.02 27.8315 288.02 28.2755C288.02 29.0675 287.858 29.7995 287.534 30.4715C287.21 31.1315 286.616 31.7315 285.752 32.2715C284.888 32.7995 283.7 33.2615 282.188 33.6575C280.676 34.0535 278.732 34.3715 276.356 34.6115C276.356 34.7435 276.35 34.8755 276.338 35.0075C276.338 35.1275 276.338 35.2535 276.338 35.3855C276.338 36.9935 276.686 38.2235 277.382 39.0755C278.09 39.9155 279.152 40.3355 280.568 40.3355C281.144 40.3355 281.654 40.2755 282.098 40.1555C282.554 40.0355 282.956 39.8915 283.304 39.7235C283.664 39.5435 283.976 39.3515 284.24 39.1475C284.516 38.9315 284.762 38.7395 284.978 38.5715C285.206 38.3915 285.416 38.2415 285.608 38.1215C285.8 38.0015 285.992 37.9415 286.184 37.9415C286.412 37.9415 286.616 38.0435 286.796 38.2475L287.588 39.2375ZM295.04 29.4455C295.52 28.4255 296.036 27.5435 296.588 26.7995C297.152 26.0435 297.74 25.4555 298.352 25.0355C298.964 24.6035 299.594 24.3455 300.242 24.2615C300.89 24.1655 301.55 24.2615 302.222 24.5495L301.646 27.6275C300.086 27.0035 298.706 27.2315 297.506 28.3115C296.318 29.3915 295.352 31.3415 294.608 34.1615L293.6 42.6035H290.468L292.664 24.3515H294.248C294.98 24.3515 295.346 24.7115 295.346 25.4315L295.04 29.4455Z" fill="white"/>
</svg>
