<svg id="Layer_1" data-name="Layer 1" xmlns="http://www.w3.org/2000/svg" xmlns:xlink="http://www.w3.org/1999/xlink" viewBox="0 0 32.49 58.17"><defs><style>.cls-1{fill:#f36b26;}.cls-2{fill:#62b146;}.cls-3{mask:url(#mask);}.cls-4{fill:none;stroke:#ffdd50;stroke-linecap:round;stroke-miterlimit:10;stroke-width:3px;}</style><mask id="mask" x="0" y="8.29" width="30.22" height="49.87" maskUnits="userSpaceOnUse"><g id="mask0"><path class="cls-1" d="M23.46,9a10.94,10.94,0,0,0-8.8.43l-.35.17c-3.09,1.76-5.12,5.25-6.88,9.78A62.07,62.07,0,0,0,4,32.32c-1.27,6-2.78,14.52-2.61,21.22,0,1.6.2,3.91,1.46,4.5S6.17,57,7.28,56A98.37,98.37,0,0,0,21.6,39.37c5.45-8.2,6.66-10.85,7.53-13.84,2-6.8.72-10,.33-10.85A11.41,11.41,0,0,0,23.46,9Z"/></g></mask></defs><path class="cls-1" d="M23.46,9a10.94,10.94,0,0,0-8.8.43l-.35.17c-3.09,1.76-5.12,5.25-6.88,9.78A62.07,62.07,0,0,0,4,32.32c-1.27,6-2.78,14.52-2.61,21.22,0,1.6.2,3.91,1.46,4.5S6.17,57,7.28,56A98.37,98.37,0,0,0,21.6,39.37c5.45-8.2,6.66-10.85,7.53-13.84,2-6.8.72-10,.33-10.85A11.41,11.41,0,0,0,23.46,9Z"/><path class="cls-2" d="M28.82,2.81a2,2,0,0,0-1-2.64,1.91,1.91,0,0,0-2.55,1L22.31,8.29a2,2,0,0,0,1,2.64,1.92,1.92,0,0,0,2.55-1Z"/><g class="cls-3"><path class="cls-4" d="M7.43,19.39l8.69,3.74"/><path class="cls-4" d="M1.5,27.58l9.21,3.85"/><path class="cls-4" d="M19.45,31.8l8.71,3.74"/><path class="cls-4" d="M15.55,41.71l8.11,3.48"/></g><path class="cls-2" d="M31.27,9.15a2,2,0,0,0,1.08-2.61,1.91,1.91,0,0,0-2.52-1.13l-6.9,2.84a2,2,0,0,0-1.09,2.61A1.92,1.92,0,0,0,24.36,12Z"/><path class="cls-2" d="M21.85,10.87A1.92,1.92,0,0,0,24.37,12a2.05,2.05,0,0,0,1.09-2.62L22.72,2.22A1.92,1.92,0,0,0,20.2,1.09,2,2,0,0,0,19.11,3.7Z"/></svg>