<svg id="Layer_1" data-name="Layer 1" xmlns="http://www.w3.org/2000/svg" viewBox="0 0 29.71 26.74"><defs><style>.cls-1{fill:#fefefe;}.cls-2{fill:#fefefd;}</style></defs><path class="cls-1" d="M16.87,18.66c-1.83,0-3.66,0-5.49,0-2.9,0-4.56-1.35-5.24-4.16Q4.88,9.24,3.74,4c-.19-.9-.56-1.29-1.48-1.13a4.17,4.17,0,0,1-.5,0A1.63,1.63,0,0,1,.2.36C.39-.07.74,0,1,0c1,0,2.08,0,3.12,0a1.72,1.72,0,0,1,2.05,1.6C7.09,5.69,8.06,9.75,9,13.82a2.14,2.14,0,0,0,2.45,1.95c3.61,0,7.23,0,10.84,0a2.16,2.16,0,0,0,2.51-1.9c.52-2,1-4.1,1.48-6.14.19-.75,0-.89-.75-.89-4.28,0-8.56,0-12.84,0-1.17,0-1.23-.46-1.23-1.37s.08-1.4,1.24-1.39c4.94.07,9.89,0,14.84,0,2.12,0,2.45.42,2,2.42-.67,2.77-1.31,5.55-2,8.31a4.51,4.51,0,0,1-4.3,3.67Z"/><path class="cls-1" d="M24.37,23.93a2.74,2.74,0,0,1-2.68,2.81A2.78,2.78,0,0,1,19,24.06a2.7,2.7,0,1,1,5.39-.13Z"/><path class="cls-2" d="M8,24a2.67,2.67,0,0,1,2.69-2.78A2.7,2.7,0,0,1,13.48,24a2.81,2.81,0,0,1-2.65,2.76A2.77,2.77,0,0,1,8,24Z"/></svg>