<svg width="303" height="59" viewBox="0 0 303 59" fill="none" xmlns="http://www.w3.org/2000/svg">
<path d="M24.354 29.4941V40.0241C23.034 40.9961 21.624 41.7101 20.124 42.1661C18.636 42.6101 17.04 42.8321 15.336 42.8321C13.212 42.8321 11.286 42.5021 9.558 41.8421C7.842 41.1821 6.372 40.2641 5.148 39.0881C3.936 37.9121 3 36.5081 2.34 34.8761C1.68 33.2441 1.35 31.4621 1.35 29.5301C1.35 27.5741 1.668 25.7801 2.304 24.1481C2.94 22.5161 3.84 21.1121 5.004 19.9361C6.18 18.7601 7.602 17.8481 9.27 17.2001C10.938 16.5521 12.81 16.2281 14.886 16.2281C15.942 16.2281 16.926 16.3121 17.838 16.4801C18.762 16.6481 19.614 16.8821 20.394 17.1821C21.186 17.4701 21.906 17.8241 22.554 18.2441C23.202 18.6641 23.796 19.1261 24.336 19.6301L22.95 21.8261C22.734 22.1741 22.452 22.3901 22.104 22.4741C21.756 22.5461 21.378 22.4561 20.97 22.2041C20.574 21.9761 20.178 21.7481 19.782 21.5201C19.386 21.2921 18.942 21.0941 18.45 20.9261C17.97 20.7581 17.424 20.6201 16.812 20.5121C16.212 20.4041 15.516 20.3501 14.724 20.3501C13.44 20.3501 12.276 20.5661 11.232 20.9981C10.2 21.4301 9.318 22.0481 8.586 22.8521C7.854 23.6561 7.29 24.6221 6.894 25.7501C6.498 26.8781 6.3 28.1381 6.3 29.5301C6.3 31.0181 6.51 32.3501 6.93 33.5261C7.362 34.6901 7.962 35.6801 8.73 36.4961C9.51 37.3001 10.446 37.9181 11.538 38.3501C12.63 38.7701 13.848 38.9801 15.192 38.9801C16.152 38.9801 17.01 38.8781 17.766 38.6741C18.522 38.4701 19.26 38.1941 19.98 37.8461V33.1301H16.704C16.392 33.1301 16.146 33.0461 15.966 32.8781C15.798 32.6981 15.714 32.4821 15.714 32.2301V29.4941H24.354ZM32.2298 27.2801C32.8058 26.1761 33.4898 25.3121 34.2818 24.6881C35.0738 24.0521 36.0098 23.7341 37.0898 23.7341C37.9418 23.7341 38.6258 23.9201 39.1418 24.2921L38.8538 27.6221C38.7938 27.8381 38.7038 27.9941 38.5838 28.0901C38.4758 28.1741 38.3258 28.2161 38.1338 28.2161C37.9538 28.2161 37.6838 28.1861 37.3238 28.1261C36.9758 28.0661 36.6338 28.0361 36.2978 28.0361C35.8058 28.0361 35.3678 28.1081 34.9838 28.2521C34.5998 28.3961 34.2518 28.6061 33.9398 28.8821C33.6398 29.1461 33.3698 29.4701 33.1298 29.8541C32.9018 30.2381 32.6858 30.6761 32.4818 31.1681V42.5441H28.0358V24.0761H30.6458C31.1018 24.0761 31.4198 24.1601 31.5998 24.3281C31.7798 24.4841 31.8998 24.7721 31.9598 25.1921L32.2298 27.2801ZM49.1102 23.7881C50.4782 23.7881 51.7202 24.0101 52.8362 24.4541C53.9642 24.8981 54.9242 25.5281 55.7162 26.3441C56.5202 27.1601 57.1382 28.1561 57.5702 29.3321C58.0022 30.5081 58.2182 31.8221 58.2182 33.2741C58.2182 34.7381 58.0022 36.0581 57.5702 37.2341C57.1382 38.4101 56.5202 39.4121 55.7162 40.2401C54.9242 41.0681 53.9642 41.7041 52.8362 42.1481C51.7202 42.5921 50.4782 42.8141 49.1102 42.8141C47.7302 42.8141 46.4762 42.5921 45.3482 42.1481C44.2202 41.7041 43.2542 41.0681 42.4502 40.2401C41.6582 39.4121 41.0402 38.4101 40.5962 37.2341C40.1642 36.0581 39.9482 34.7381 39.9482 33.2741C39.9482 31.8221 40.1642 30.5081 40.5962 29.3321C41.0402 28.1561 41.6582 27.1601 42.4502 26.3441C43.2542 25.5281 44.2202 24.8981 45.3482 24.4541C46.4762 24.0101 47.7302 23.7881 49.1102 23.7881ZM49.1102 39.3941C50.6462 39.3941 51.7802 38.8781 52.5122 37.8461C53.2562 36.8141 53.6282 35.3021 53.6282 33.3101C53.6282 31.3181 53.2562 29.8001 52.5122 28.7561C51.7802 27.7121 50.6462 27.1901 49.1102 27.1901C47.5502 27.1901 46.3922 27.7181 45.6362 28.7741C44.8922 29.8181 44.5202 31.3301 44.5202 33.3101C44.5202 35.2901 44.8922 36.8021 45.6362 37.8461C46.3922 38.8781 47.5502 39.3941 49.1102 39.3941ZM74.8401 27.9821C74.7081 28.1501 74.5761 28.2821 74.4441 28.3781C74.3241 28.4741 74.1441 28.5221 73.9041 28.5221C73.6761 28.5221 73.4541 28.4561 73.2381 28.3241C73.0221 28.1801 72.7641 28.0241 72.4641 27.8561C72.1641 27.6761 71.8041 27.5201 71.3841 27.3881C70.9761 27.2441 70.4661 27.1721 69.8541 27.1721C69.0741 27.1721 68.3901 27.3161 67.8021 27.6041C67.2141 27.8801 66.7221 28.2821 66.3261 28.8101C65.9421 29.3381 65.6541 29.9801 65.4621 30.7361C65.2701 31.4801 65.1741 32.3261 65.1741 33.2741C65.1741 34.2581 65.2761 35.1341 65.4801 35.9021C65.6961 36.6701 66.0021 37.3181 66.3981 37.8461C66.7941 38.3621 67.2741 38.7581 67.8381 39.0341C68.4021 39.2981 69.0381 39.4301 69.7461 39.4301C70.4541 39.4301 71.0241 39.3461 71.4561 39.1781C71.9001 38.9981 72.2721 38.8061 72.5721 38.6021C72.8721 38.3861 73.1301 38.1941 73.3461 38.0261C73.5741 37.8461 73.8261 37.7561 74.1021 37.7561C74.4621 37.7561 74.7321 37.8941 74.9121 38.1701L76.1901 39.7901C75.6981 40.3661 75.1641 40.8521 74.5881 41.2481C74.0121 41.6321 73.4121 41.9441 72.7881 42.1841C72.1761 42.4121 71.5401 42.5741 70.8801 42.6701C70.2321 42.7661 69.5841 42.8141 68.9361 42.8141C67.7961 42.8141 66.7221 42.6041 65.7141 42.1841C64.7061 41.7521 63.8241 41.1281 63.0681 40.3121C62.3121 39.4961 61.7121 38.5001 61.2681 37.3241C60.8361 36.1361 60.6201 34.7861 60.6201 33.2741C60.6201 31.9181 60.8121 30.6641 61.1961 29.5121C61.5921 28.3481 62.1681 27.3461 62.9241 26.5061C63.6801 25.6541 64.6161 24.9881 65.7321 24.5081C66.8481 24.0281 68.1321 23.7881 69.5841 23.7881C70.9641 23.7881 72.1701 24.0101 73.2021 24.4541C74.2461 24.8981 75.1821 25.5341 76.0101 26.3621L74.8401 27.9821ZM90.5588 31.1861C90.5588 30.6101 90.4748 30.0701 90.3068 29.5661C90.1508 29.0501 89.9108 28.6001 89.5868 28.2161C89.2628 27.8321 88.8488 27.5321 88.3448 27.3161C87.8528 27.0881 87.2768 26.9741 86.6168 26.9741C85.3328 26.9741 84.3188 27.3401 83.5748 28.0721C82.8428 28.8041 82.3748 29.8421 82.1708 31.1861H90.5588ZM82.0808 33.8681C82.1528 34.8161 82.3208 35.6381 82.5848 36.3341C82.8488 37.0181 83.1968 37.5881 83.6288 38.0441C84.0608 38.4881 84.5708 38.8241 85.1588 39.0521C85.7588 39.2681 86.4188 39.3761 87.1388 39.3761C87.8588 39.3761 88.4768 39.2921 88.9928 39.1241C89.5208 38.9561 89.9768 38.7701 90.3608 38.5661C90.7568 38.3621 91.0988 38.1761 91.3868 38.0081C91.6868 37.8401 91.9748 37.7561 92.2508 37.7561C92.6228 37.7561 92.8988 37.8941 93.0788 38.1701L94.3568 39.7901C93.8648 40.3661 93.3128 40.8521 92.7008 41.2481C92.0888 41.6321 91.4468 41.9441 90.7748 42.1841C90.1148 42.4121 89.4368 42.5741 88.7408 42.6701C88.0568 42.7661 87.3908 42.8141 86.7428 42.8141C85.4588 42.8141 84.2648 42.6041 83.1608 42.1841C82.0568 41.7521 81.0968 41.1221 80.2808 40.2941C79.4648 39.4541 78.8228 38.4221 78.3548 37.1981C77.8868 35.9621 77.6528 34.5341 77.6528 32.9141C77.6528 31.6541 77.8568 30.4721 78.2648 29.3681C78.6728 28.2521 79.2548 27.2861 80.0108 26.4701C80.7788 25.6421 81.7088 24.9881 82.8008 24.5081C83.9048 24.0281 85.1468 23.7881 86.5268 23.7881C87.6908 23.7881 88.7648 23.9741 89.7488 24.3461C90.7328 24.7181 91.5788 25.2641 92.2868 25.9841C92.9948 26.6921 93.5468 27.5681 93.9428 28.6121C94.3508 29.6441 94.5548 30.8261 94.5548 32.1581C94.5548 32.8301 94.4828 33.2861 94.3388 33.5261C94.1948 33.7541 93.9188 33.8681 93.5108 33.8681H82.0808ZM102.085 27.2801C102.661 26.1761 103.345 25.3121 104.137 24.6881C104.929 24.0521 105.865 23.7341 106.945 23.7341C107.797 23.7341 108.481 23.9201 108.997 24.2921L108.709 27.6221C108.649 27.8381 108.559 27.9941 108.439 28.0901C108.331 28.1741 108.181 28.2161 107.989 28.2161C107.809 28.2161 107.539 28.1861 107.179 28.1261C106.831 28.0661 106.489 28.0361 106.153 28.0361C105.661 28.0361 105.223 28.1081 104.839 28.2521C104.455 28.3961 104.107 28.6061 103.795 28.8821C103.495 29.1461 103.225 29.4701 102.985 29.8541C102.757 30.2381 102.541 30.6761 102.337 31.1681V42.5441H97.8913V24.0761H100.501C100.957 24.0761 101.275 24.1601 101.455 24.3281C101.635 24.4841 101.755 24.7721 101.815 25.1921L102.085 27.2801ZM128.097 24.0761L118.035 47.6201C117.903 47.9321 117.729 48.1661 117.513 48.3221C117.309 48.4901 116.991 48.5741 116.559 48.5741H113.247L116.703 41.1581L109.233 24.0761H113.139C113.487 24.0761 113.757 24.1601 113.949 24.3281C114.153 24.4961 114.303 24.6881 114.399 24.9041L118.323 34.4801C118.455 34.8041 118.563 35.1281 118.647 35.4521C118.743 35.7761 118.833 36.1061 118.917 36.4421C119.025 36.1061 119.133 35.7761 119.241 35.4521C119.349 35.1161 119.469 34.7861 119.601 34.4621L123.309 24.9041C123.405 24.6641 123.561 24.4661 123.777 24.3101C124.005 24.1541 124.257 24.0761 124.533 24.0761H128.097Z" fill="#8E8E8E"/>
<path d="M142.133 9.64512C140.713 9.10413 139.203 8.86307 137.692 8.9361C136.181 9.00912 134.699 9.39477 133.333 10.0704L132.983 10.2467C129.893 11.9995 127.863 15.4948 126.103 20.0272C124.484 24.1876 123.317 28.522 122.623 32.9504C121.353 38.9038 119.843 47.4708 120.013 54.171C120.013 55.7682 120.213 58.0811 121.473 58.6723C122.733 59.2635 124.843 57.6351 125.953 56.598C131.312 51.641 136.115 46.0744 140.273 40.0032C145.723 31.7991 146.933 29.1543 147.803 26.1673C149.803 19.3634 148.523 16.1689 148.133 15.3081C146.878 12.7152 144.74 10.6974 142.133 9.64512Z" fill="#8E8E8E"/>
<path d="M147.488 3.44333C147.913 2.42324 147.46 1.23894 146.477 0.798142C145.493 0.357341 144.351 0.826952 143.926 1.84705L140.979 8.92105C140.554 9.94115 141.007 11.1254 141.99 11.5662C142.974 12.007 144.116 11.5374 144.541 10.5173L147.488 3.44333Z" fill="#8E8E8E"/>
<mask id="mask0" mask-type="alpha" maskUnits="userSpaceOnUse" x="120" y="8" width="29" height="51">
<path d="M142.133 9.64512C140.713 9.10413 139.203 8.86307 137.692 8.9361C136.181 9.00912 134.699 9.39477 133.333 10.0704L132.983 10.2467C129.893 11.9995 127.863 15.4948 126.103 20.0272C124.484 24.1876 123.317 28.522 122.623 32.9504C121.353 38.9038 119.843 47.4708 120.013 54.171C120.013 55.7682 120.213 58.0811 121.473 58.6723C122.733 59.2635 124.843 57.6351 125.953 56.598C131.312 51.641 136.115 46.0744 140.273 40.0032C145.723 31.7991 146.933 29.1543 147.803 26.1673C149.803 19.3634 148.523 16.1689 148.133 15.3081C146.878 12.7152 144.74 10.6974 142.133 9.64512Z" fill="#8E8E8E"/>
</mask>
<g mask="url(#mask0)">
<path d="M126.103 20.0273L134.793 23.7612" stroke="white" stroke-width="2" stroke-miterlimit="10" stroke-linecap="round"/>
<path d="M120.173 28.2107L129.383 32.0586" stroke="white" stroke-width="2" stroke-miterlimit="10" stroke-linecap="round"/>
<path d="M138.123 32.432L146.833 36.1762" stroke="white" stroke-width="2" stroke-miterlimit="10" stroke-linecap="round"/>
<path d="M134.223 42.3473L142.333 45.8218" stroke="white" stroke-width="2" stroke-miterlimit="10" stroke-linecap="round"/>
</g>
<path d="M149.938 9.78187C150.934 9.37225 151.421 8.20276 151.026 7.16975C150.631 6.13674 149.504 5.63138 148.508 6.04101L141.601 8.8816C140.605 9.29122 140.118 10.4607 140.513 11.4937C140.907 12.5267 142.035 13.0321 143.031 12.6225L149.938 9.78187Z" fill="#8E8E8E"/>
<path d="M140.523 11.4997C140.918 12.5327 142.046 13.038 143.042 12.6284C144.038 12.2188 144.525 11.0493 144.13 10.0163L141.391 2.85273C140.996 1.81972 139.869 1.31436 138.873 1.72399C137.877 2.13361 137.39 3.3031 137.785 4.33611L140.523 11.4997Z" fill="#8E8E8E"/>
<path d="M168.336 17.0922L155.52 42.8862H152.478L145.962 17.0922H148.662C148.962 17.0922 149.196 17.1702 149.364 17.3262C149.544 17.4822 149.652 17.6742 149.688 17.9022L154.008 36.3342C154.104 36.7182 154.194 37.1442 154.278 37.6122C154.362 38.0682 154.434 38.5482 154.494 39.0522C154.662 38.5482 154.836 38.0682 155.016 37.6122C155.196 37.1442 155.388 36.7182 155.592 36.3342L164.394 17.9022C164.49 17.6982 164.646 17.5122 164.862 17.3442C165.09 17.1762 165.348 17.0922 165.636 17.0922H168.336ZM177.734 26.8842C177.47 26.8242 177.206 26.7882 176.942 26.7762C176.69 26.7522 176.438 26.7402 176.186 26.7402C175.466 26.7402 174.77 26.8602 174.098 27.1002C173.426 27.3282 172.796 27.6522 172.208 28.0722C171.62 28.4922 171.086 28.9962 170.606 29.5842C170.126 30.1602 169.712 30.7962 169.364 31.4922C169.028 32.1882 168.764 32.9322 168.572 33.7242C168.38 34.5042 168.284 35.3082 168.284 36.1362C168.284 39.0282 169.208 40.4742 171.056 40.4742C171.644 40.4742 172.22 40.2942 172.784 39.9342C173.348 39.5622 173.882 39.0522 174.386 38.4042C174.902 37.7442 175.376 36.9702 175.808 36.0822C176.24 35.1822 176.624 34.1982 176.96 33.1302L177.734 26.8842ZM176.51 38.0802C176.078 38.8482 175.61 39.5442 175.106 40.1682C174.614 40.7922 174.086 41.3262 173.522 41.7702C172.97 42.2022 172.382 42.5382 171.758 42.7782C171.146 43.0182 170.51 43.1382 169.85 43.1382C169.13 43.1382 168.476 43.0002 167.888 42.7242C167.3 42.4362 166.796 42.0222 166.376 41.4822C165.968 40.9302 165.65 40.2582 165.422 39.4662C165.194 38.6622 165.08 37.7442 165.08 36.7122C165.08 35.6322 165.212 34.5822 165.476 33.5622C165.752 32.5302 166.136 31.5582 166.628 30.6462C167.132 29.7342 167.732 28.9002 168.428 28.1442C169.124 27.3762 169.898 26.7162 170.75 26.1642C171.614 25.6002 172.538 25.1682 173.522 24.8682C174.506 24.5562 175.538 24.4002 176.618 24.4002C177.398 24.4002 178.154 24.4662 178.886 24.5982C179.63 24.7182 180.362 24.9342 181.082 25.2462L178.904 42.8862H177.248C176.828 42.8862 176.54 42.7782 176.384 42.5622C176.24 42.3462 176.168 42.0822 176.168 41.7702L176.51 38.0802ZM188.218 29.2602C189.19 27.6522 190.288 26.4402 191.512 25.6242C192.736 24.7962 193.996 24.3822 195.292 24.3822C196.06 24.3822 196.732 24.5382 197.308 24.8502C197.896 25.1502 198.37 25.5942 198.73 26.1822C199.102 26.7702 199.354 27.4962 199.486 28.3602C199.618 29.2122 199.618 30.1842 199.486 31.2762L198.118 42.8862H194.932L196.3 31.2762C196.468 29.8362 196.378 28.7742 196.03 28.0902C195.682 27.3942 195.04 27.0462 194.104 27.0462C193.528 27.0462 192.94 27.2022 192.34 27.5142C191.752 27.8262 191.182 28.2702 190.63 28.8462C190.078 29.4222 189.562 30.1182 189.082 30.9342C188.614 31.7382 188.212 32.6382 187.876 33.6342L186.832 42.8862H183.628L185.824 24.6342H187.408C188.128 24.6342 188.488 24.9942 188.488 25.7142L188.218 29.2602ZM216.38 39.6102C215.756 40.2942 215.162 40.8642 214.598 41.3202C214.034 41.7762 213.47 42.1422 212.906 42.4182C212.342 42.6822 211.754 42.8682 211.142 42.9762C210.542 43.0842 209.894 43.1382 209.198 43.1382C208.142 43.1382 207.206 42.9582 206.39 42.5982C205.586 42.2382 204.908 41.7342 204.356 41.0862C203.816 40.4262 203.402 39.6402 203.114 38.7282C202.838 37.8042 202.7 36.7902 202.7 35.6862C202.7 34.2102 202.928 32.7942 203.384 31.4382C203.852 30.0822 204.5 28.8822 205.328 27.8382C206.156 26.7942 207.14 25.9602 208.28 25.3362C209.432 24.7122 210.686 24.4002 212.042 24.4002C213.254 24.4002 214.268 24.6162 215.084 25.0482C215.9 25.4682 216.614 26.0862 217.226 26.9022L216.218 28.1082C216.134 28.2042 216.038 28.2822 215.93 28.3422C215.834 28.4022 215.72 28.4322 215.588 28.4322C215.42 28.4322 215.252 28.3602 215.084 28.2162C214.928 28.0602 214.718 27.8922 214.454 27.7122C214.19 27.5202 213.86 27.3522 213.464 27.2082C213.08 27.0522 212.582 26.9742 211.97 26.9742C211.142 26.9742 210.362 27.2022 209.63 27.6582C208.898 28.1022 208.256 28.7142 207.704 29.4942C207.152 30.2742 206.714 31.1982 206.39 32.2662C206.078 33.3342 205.922 34.4802 205.922 35.7042C205.922 36.4482 206.006 37.1262 206.174 37.7382C206.342 38.3382 206.594 38.8542 206.93 39.2862C207.266 39.7062 207.674 40.0362 208.154 40.2762C208.646 40.5042 209.216 40.6182 209.864 40.6182C210.668 40.6182 211.34 40.4982 211.88 40.2582C212.432 40.0182 212.894 39.7602 213.266 39.4842C213.638 39.1962 213.95 38.9322 214.202 38.6922C214.466 38.4522 214.724 38.3322 214.976 38.3322C215.204 38.3322 215.408 38.4342 215.588 38.6382L216.38 39.6102ZM225.806 40.6362C226.682 40.6362 227.474 40.3962 228.182 39.9162C228.902 39.4362 229.514 38.8002 230.018 38.0082C230.534 37.2042 230.93 36.2802 231.206 35.2362C231.482 34.1922 231.62 33.1002 231.62 31.9602C231.62 30.2802 231.284 29.0202 230.612 28.1802C229.952 27.3282 228.998 26.9022 227.75 26.9022C226.862 26.9022 226.058 27.1422 225.338 27.6222C224.63 28.0902 224.024 28.7202 223.52 29.5122C223.016 30.3042 222.626 31.2222 222.35 32.2662C222.074 33.3102 221.936 34.4022 221.936 35.5422C221.936 37.2222 222.266 38.4942 222.926 39.3582C223.586 40.2102 224.546 40.6362 225.806 40.6362ZM225.5 43.1382C224.504 43.1382 223.592 42.9702 222.764 42.6342C221.936 42.2862 221.222 41.7882 220.622 41.1402C220.022 40.4922 219.554 39.7002 219.218 38.7642C218.882 37.8282 218.714 36.7602 218.714 35.5602C218.714 34.0242 218.954 32.5782 219.434 31.2222C219.914 29.8662 220.574 28.6842 221.414 27.6762C222.254 26.6562 223.238 25.8522 224.366 25.2642C225.506 24.6762 226.73 24.3822 228.038 24.3822C229.034 24.3822 229.946 24.5562 230.774 24.9042C231.602 25.2402 232.316 25.7322 232.916 26.3802C233.516 27.0282 233.984 27.8202 234.32 28.7562C234.656 29.6922 234.824 30.7542 234.824 31.9422C234.824 33.4662 234.584 34.9062 234.104 36.2622C233.624 37.6182 232.964 38.8062 232.124 39.8262C231.296 40.8462 230.312 41.6562 229.172 42.2562C228.032 42.8442 226.808 43.1382 225.5 43.1382ZM253.87 24.6522L251.674 42.8862H250.09C249.31 42.8862 248.92 42.5022 248.92 41.7342L249.19 38.4042C248.23 39.9642 247.144 41.1462 245.932 41.9502C244.732 42.7422 243.496 43.1382 242.224 43.1382C241.456 43.1382 240.778 42.9882 240.19 42.6882C239.602 42.3762 239.122 41.9262 238.75 41.3382C238.39 40.7502 238.144 40.0302 238.012 39.1782C237.88 38.3262 237.886 37.3482 238.03 36.2442L239.398 24.6522H242.584L241.216 36.2442C241.048 37.6722 241.132 38.7342 241.468 39.4302C241.816 40.1262 242.464 40.4742 243.412 40.4742C243.964 40.4742 244.534 40.3242 245.122 40.0242C245.71 39.7242 246.274 39.2982 246.814 38.7462C247.354 38.1942 247.858 37.5282 248.326 36.7482C248.806 35.9562 249.214 35.0802 249.55 34.1202L250.684 24.6522H253.87ZM273.159 24.6522L264.015 42.8862H261.351L256.635 24.6522H259.227C259.467 24.6522 259.659 24.7182 259.803 24.8502C259.947 24.9822 260.043 25.1382 260.091 25.3182L262.791 37.0542C262.863 37.5102 262.923 37.9602 262.971 38.4042C263.019 38.8482 263.061 39.2982 263.097 39.7542C263.229 39.3102 263.373 38.8662 263.529 38.4222C263.685 37.9782 263.865 37.5222 264.069 37.0542L269.703 25.3182C269.799 25.1262 269.931 24.9702 270.099 24.8502C270.267 24.7182 270.459 24.6522 270.675 24.6522H273.159ZM282.512 26.7042C281.756 26.7042 281.06 26.8602 280.424 27.1722C279.788 27.4842 279.224 27.9162 278.732 28.4682C278.24 29.0082 277.82 29.6502 277.472 30.3942C277.124 31.1262 276.854 31.9182 276.662 32.7702C278.51 32.5422 279.992 32.2842 281.108 31.9962C282.224 31.6962 283.082 31.3782 283.682 31.0422C284.282 30.6942 284.678 30.3222 284.87 29.9262C285.062 29.5302 285.158 29.1162 285.158 28.6842C285.158 28.4682 285.11 28.2462 285.014 28.0182C284.918 27.7782 284.762 27.5622 284.546 27.3702C284.342 27.1782 284.072 27.0222 283.736 26.9022C283.4 26.7702 282.992 26.7042 282.512 26.7042ZM287.588 39.5202C286.976 40.1562 286.376 40.7022 285.788 41.1582C285.2 41.6022 284.6 41.9742 283.988 42.2742C283.388 42.5742 282.752 42.7902 282.08 42.9222C281.42 43.0662 280.706 43.1382 279.938 43.1382C278.894 43.1382 277.958 42.9642 277.13 42.6162C276.302 42.2682 275.6 41.7762 275.024 41.1402C274.448 40.4922 274.004 39.7122 273.692 38.8002C273.38 37.8882 273.224 36.8682 273.224 35.7402C273.224 34.8042 273.32 33.8742 273.512 32.9502C273.716 32.0142 274.004 31.1262 274.376 30.2862C274.76 29.4462 275.222 28.6662 275.762 27.9462C276.314 27.2262 276.938 26.6082 277.634 26.0922C278.342 25.5642 279.116 25.1502 279.956 24.8502C280.808 24.5502 281.72 24.4002 282.692 24.4002C283.616 24.4002 284.414 24.5322 285.086 24.7962C285.758 25.0602 286.31 25.3962 286.742 25.8042C287.174 26.2122 287.492 26.6622 287.696 27.1542C287.912 27.6462 288.02 28.1142 288.02 28.5582C288.02 29.3502 287.858 30.0822 287.534 30.7542C287.21 31.4142 286.616 32.0142 285.752 32.5542C284.888 33.0822 283.7 33.5442 282.188 33.9402C280.676 34.3362 278.732 34.6542 276.356 34.8942C276.356 35.0262 276.35 35.1582 276.338 35.2902C276.338 35.4102 276.338 35.5362 276.338 35.6682C276.338 37.2762 276.686 38.5062 277.382 39.3582C278.09 40.1982 279.152 40.6182 280.568 40.6182C281.144 40.6182 281.654 40.5582 282.098 40.4382C282.554 40.3182 282.956 40.1742 283.304 40.0062C283.664 39.8262 283.976 39.6342 284.24 39.4302C284.516 39.2142 284.762 39.0222 284.978 38.8542C285.206 38.6742 285.416 38.5242 285.608 38.4042C285.8 38.2842 285.992 38.2242 286.184 38.2242C286.412 38.2242 286.616 38.3262 286.796 38.5302L287.588 39.5202ZM295.04 29.7282C295.52 28.7082 296.036 27.8262 296.588 27.0822C297.152 26.3262 297.74 25.7382 298.352 25.3182C298.964 24.8862 299.594 24.6282 300.242 24.5442C300.89 24.4482 301.55 24.5442 302.222 24.8322L301.646 27.9102C300.086 27.2862 298.706 27.5142 297.506 28.5942C296.318 29.6742 295.352 31.6242 294.608 34.4442L293.6 42.8862H290.468L292.664 24.6342H294.248C294.98 24.6342 295.346 24.9942 295.346 25.7142L295.04 29.7282Z" fill="#8E8E8E"/>
</svg>
