<svg width="308" height="59" viewBox="0 0 308 59" fill="none" xmlns="http://www.w3.org/2000/svg">
<path d="M24.354 29.4941V40.0241C23.034 40.9961 21.624 41.7101 20.124 42.1661C18.636 42.6101 17.04 42.8321 15.336 42.8321C13.212 42.8321 11.286 42.5021 9.558 41.8421C7.842 41.1821 6.372 40.2641 5.148 39.0881C3.936 37.9121 3 36.5081 2.34 34.8761C1.68 33.2441 1.35 31.4621 1.35 29.5301C1.35 27.5741 1.668 25.7801 2.304 24.1481C2.94 22.5161 3.84 21.1121 5.004 19.9361C6.18 18.7601 7.602 17.8481 9.27 17.2001C10.938 16.5521 12.81 16.2281 14.886 16.2281C15.942 16.2281 16.926 16.3121 17.838 16.4801C18.762 16.6481 19.614 16.8821 20.394 17.1821C21.186 17.4701 21.906 17.8241 22.554 18.2441C23.202 18.6641 23.796 19.1261 24.336 19.6301L22.95 21.8261C22.734 22.1741 22.452 22.3901 22.104 22.4741C21.756 22.5461 21.378 22.4561 20.97 22.2041C20.574 21.9761 20.178 21.7481 19.782 21.5201C19.386 21.2921 18.942 21.0941 18.45 20.9261C17.97 20.7581 17.424 20.6201 16.812 20.5121C16.212 20.4041 15.516 20.3501 14.724 20.3501C13.44 20.3501 12.276 20.5661 11.232 20.9981C10.2 21.4301 9.318 22.0481 8.586 22.8521C7.854 23.6561 7.29 24.6221 6.894 25.7501C6.498 26.8781 6.3 28.1381 6.3 29.5301C6.3 31.0181 6.51 32.3501 6.93 33.5261C7.362 34.6901 7.962 35.6801 8.73 36.4961C9.51 37.3001 10.446 37.9181 11.538 38.3501C12.63 38.7701 13.848 38.9801 15.192 38.9801C16.152 38.9801 17.01 38.8781 17.766 38.6741C18.522 38.4701 19.26 38.1941 19.98 37.8461V33.1301H16.704C16.392 33.1301 16.146 33.0461 15.966 32.8781C15.798 32.6981 15.714 32.4821 15.714 32.2301V29.4941H24.354ZM32.2298 27.2801C32.8058 26.1761 33.4898 25.3121 34.2818 24.6881C35.0738 24.0521 36.0098 23.7341 37.0898 23.7341C37.9418 23.7341 38.6258 23.9201 39.1418 24.2921L38.8538 27.6221C38.7938 27.8381 38.7038 27.9941 38.5838 28.0901C38.4758 28.1741 38.3258 28.2161 38.1338 28.2161C37.9538 28.2161 37.6838 28.1861 37.3238 28.1261C36.9758 28.0661 36.6338 28.0361 36.2978 28.0361C35.8058 28.0361 35.3678 28.1081 34.9838 28.2521C34.5998 28.3961 34.2518 28.6061 33.9398 28.8821C33.6398 29.1461 33.3698 29.4701 33.1298 29.8541C32.9018 30.2381 32.6858 30.6761 32.4818 31.1681V42.5441H28.0358V24.0761H30.6458C31.1018 24.0761 31.4198 24.1601 31.5998 24.3281C31.7798 24.4841 31.8998 24.7721 31.9598 25.1921L32.2298 27.2801ZM49.1102 23.7881C50.4782 23.7881 51.7202 24.0101 52.8362 24.4541C53.9642 24.8981 54.9242 25.5281 55.7162 26.3441C56.5202 27.1601 57.1382 28.1561 57.5702 29.3321C58.0022 30.5081 58.2182 31.8221 58.2182 33.2741C58.2182 34.7381 58.0022 36.0581 57.5702 37.2341C57.1382 38.4101 56.5202 39.4121 55.7162 40.2401C54.9242 41.0681 53.9642 41.7041 52.8362 42.1481C51.7202 42.5921 50.4782 42.8141 49.1102 42.8141C47.7302 42.8141 46.4762 42.5921 45.3482 42.1481C44.2202 41.7041 43.2542 41.0681 42.4502 40.2401C41.6582 39.4121 41.0402 38.4101 40.5962 37.2341C40.1642 36.0581 39.9482 34.7381 39.9482 33.2741C39.9482 31.8221 40.1642 30.5081 40.5962 29.3321C41.0402 28.1561 41.6582 27.1601 42.4502 26.3441C43.2542 25.5281 44.2202 24.8981 45.3482 24.4541C46.4762 24.0101 47.7302 23.7881 49.1102 23.7881ZM49.1102 39.3941C50.6462 39.3941 51.7802 38.8781 52.5122 37.8461C53.2562 36.8141 53.6282 35.3021 53.6282 33.3101C53.6282 31.3181 53.2562 29.8001 52.5122 28.7561C51.7802 27.7121 50.6462 27.1901 49.1102 27.1901C47.5502 27.1901 46.3922 27.7181 45.6362 28.7741C44.8922 29.8181 44.5202 31.3301 44.5202 33.3101C44.5202 35.2901 44.8922 36.8021 45.6362 37.8461C46.3922 38.8781 47.5502 39.3941 49.1102 39.3941ZM74.8401 27.9821C74.7081 28.1501 74.5761 28.2821 74.4441 28.3781C74.3241 28.4741 74.1441 28.5221 73.9041 28.5221C73.6761 28.5221 73.4541 28.4561 73.2381 28.3241C73.0221 28.1801 72.7641 28.0241 72.4641 27.8561C72.1641 27.6761 71.8041 27.5201 71.3841 27.3881C70.9761 27.2441 70.4661 27.1721 69.8541 27.1721C69.0741 27.1721 68.3901 27.3161 67.8021 27.6041C67.2141 27.8801 66.7221 28.2821 66.3261 28.8101C65.9421 29.3381 65.6541 29.9801 65.4621 30.7361C65.2701 31.4801 65.1741 32.3261 65.1741 33.2741C65.1741 34.2581 65.2761 35.1341 65.4801 35.9021C65.6961 36.6701 66.0021 37.3181 66.3981 37.8461C66.7941 38.3621 67.2741 38.7581 67.8381 39.0341C68.4021 39.2981 69.0381 39.4301 69.7461 39.4301C70.4541 39.4301 71.0241 39.3461 71.4561 39.1781C71.9001 38.9981 72.2721 38.8061 72.5721 38.6021C72.8721 38.3861 73.1301 38.1941 73.3461 38.0261C73.5741 37.8461 73.8261 37.7561 74.1021 37.7561C74.4621 37.7561 74.7321 37.8941 74.9121 38.1701L76.1901 39.7901C75.6981 40.3661 75.1641 40.8521 74.5881 41.2481C74.0121 41.6321 73.4121 41.9441 72.7881 42.1841C72.1761 42.4121 71.5401 42.5741 70.8801 42.6701C70.2321 42.7661 69.5841 42.8141 68.9361 42.8141C67.7961 42.8141 66.7221 42.6041 65.7141 42.1841C64.7061 41.7521 63.8241 41.1281 63.0681 40.3121C62.3121 39.4961 61.7121 38.5001 61.2681 37.3241C60.8361 36.1361 60.6201 34.7861 60.6201 33.2741C60.6201 31.9181 60.8121 30.6641 61.1961 29.5121C61.5921 28.3481 62.1681 27.3461 62.9241 26.5061C63.6801 25.6541 64.6161 24.9881 65.7321 24.5081C66.8481 24.0281 68.1321 23.7881 69.5841 23.7881C70.9641 23.7881 72.1701 24.0101 73.2021 24.4541C74.2461 24.8981 75.1821 25.5341 76.0101 26.3621L74.8401 27.9821ZM90.5588 31.1861C90.5588 30.6101 90.4748 30.0701 90.3068 29.5661C90.1508 29.0501 89.9108 28.6001 89.5868 28.2161C89.2628 27.8321 88.8488 27.5321 88.3448 27.3161C87.8528 27.0881 87.2768 26.9741 86.6168 26.9741C85.3328 26.9741 84.3188 27.3401 83.5748 28.0721C82.8428 28.8041 82.3748 29.8421 82.1708 31.1861H90.5588ZM82.0808 33.8681C82.1528 34.8161 82.3208 35.6381 82.5848 36.3341C82.8488 37.0181 83.1968 37.5881 83.6288 38.0441C84.0608 38.4881 84.5708 38.8241 85.1588 39.0521C85.7588 39.2681 86.4188 39.3761 87.1388 39.3761C87.8588 39.3761 88.4768 39.2921 88.9928 39.1241C89.5208 38.9561 89.9768 38.7701 90.3608 38.5661C90.7568 38.3621 91.0988 38.1761 91.3868 38.0081C91.6868 37.8401 91.9748 37.7561 92.2508 37.7561C92.6228 37.7561 92.8988 37.8941 93.0788 38.1701L94.3568 39.7901C93.8648 40.3661 93.3128 40.8521 92.7008 41.2481C92.0888 41.6321 91.4468 41.9441 90.7748 42.1841C90.1148 42.4121 89.4368 42.5741 88.7408 42.6701C88.0568 42.7661 87.3908 42.8141 86.7428 42.8141C85.4588 42.8141 84.2648 42.6041 83.1608 42.1841C82.0568 41.7521 81.0968 41.1221 80.2808 40.2941C79.4648 39.4541 78.8228 38.4221 78.3548 37.1981C77.8868 35.9621 77.6528 34.5341 77.6528 32.9141C77.6528 31.6541 77.8568 30.4721 78.2648 29.3681C78.6728 28.2521 79.2548 27.2861 80.0108 26.4701C80.7788 25.6421 81.7088 24.9881 82.8008 24.5081C83.9048 24.0281 85.1468 23.7881 86.5268 23.7881C87.6908 23.7881 88.7648 23.9741 89.7488 24.3461C90.7328 24.7181 91.5788 25.2641 92.2868 25.9841C92.9948 26.6921 93.5468 27.5681 93.9428 28.6121C94.3508 29.6441 94.5548 30.8261 94.5548 32.1581C94.5548 32.8301 94.4828 33.2861 94.3388 33.5261C94.1948 33.7541 93.9188 33.8681 93.5108 33.8681H82.0808ZM102.085 27.2801C102.661 26.1761 103.345 25.3121 104.137 24.6881C104.929 24.0521 105.865 23.7341 106.945 23.7341C107.797 23.7341 108.481 23.9201 108.997 24.2921L108.709 27.6221C108.649 27.8381 108.559 27.9941 108.439 28.0901C108.331 28.1741 108.181 28.2161 107.989 28.2161C107.809 28.2161 107.539 28.1861 107.179 28.1261C106.831 28.0661 106.489 28.0361 106.153 28.0361C105.661 28.0361 105.223 28.1081 104.839 28.2521C104.455 28.3961 104.107 28.6061 103.795 28.8821C103.495 29.1461 103.225 29.4701 102.985 29.8541C102.757 30.2381 102.541 30.6761 102.337 31.1681V42.5441H97.8913V24.0761H100.501C100.957 24.0761 101.275 24.1601 101.455 24.3281C101.635 24.4841 101.755 24.7721 101.815 25.1921L102.085 27.2801ZM128.097 24.0761L118.035 47.6201C117.903 47.9321 117.729 48.1661 117.513 48.3221C117.309 48.4901 116.991 48.5741 116.559 48.5741H113.247L116.703 41.1581L109.233 24.0761H113.139C113.487 24.0761 113.757 24.1601 113.949 24.3281C114.153 24.4961 114.303 24.6881 114.399 24.9041L118.323 34.4801C118.455 34.8041 118.563 35.1281 118.647 35.4521C118.743 35.7761 118.833 36.1061 118.917 36.4421C119.025 36.1061 119.133 35.7761 119.241 35.4521C119.349 35.1161 119.469 34.7861 119.601 34.4621L123.309 24.9041C123.405 24.6641 123.561 24.4661 123.777 24.3101C124.005 24.1541 124.257 24.0761 124.533 24.0761H128.097Z" fill="#989898"/>
<path d="M148.133 9.64512C146.713 9.10413 145.203 8.86307 143.692 8.9361C142.181 9.00912 140.699 9.39477 139.333 10.0704L138.983 10.2467C135.893 11.9995 133.863 15.4948 132.103 20.0272C130.484 24.1876 129.317 28.522 128.623 32.9504C127.353 38.9038 125.843 47.4708 126.013 54.171C126.013 55.7682 126.213 58.0811 127.473 58.6723C128.733 59.2635 130.843 57.6351 131.953 56.598C137.312 51.641 142.115 46.0744 146.273 40.0032C151.723 31.7991 152.933 29.1543 153.803 26.1673C155.803 19.3634 154.523 16.1689 154.133 15.3081C152.878 12.7152 150.74 10.6974 148.133 9.64512V9.64512Z" fill="#838383"/>
<path d="M153.488 3.44333C153.913 2.42324 153.46 1.23894 152.477 0.798142C151.493 0.357341 150.351 0.826952 149.926 1.84705L146.979 8.92105C146.554 9.94115 147.007 11.1254 147.99 11.5662C148.974 12.007 150.116 11.5374 150.541 10.5173L153.488 3.44333Z" fill="#989898"/>
<mask id="mask0" mask-type="alpha" maskUnits="userSpaceOnUse" x="126" y="8" width="29" height="51">
<path d="M148.133 9.64512C146.713 9.10413 145.203 8.86307 143.692 8.9361C142.181 9.00912 140.699 9.39477 139.333 10.0704L138.983 10.2467C135.893 11.9995 133.863 15.4948 132.103 20.0272C130.484 24.1876 129.317 28.522 128.623 32.9504C127.353 38.9038 125.843 47.4708 126.013 54.171C126.013 55.7682 126.213 58.0811 127.473 58.6723C128.733 59.2635 130.843 57.6351 131.953 56.598C137.312 51.641 142.115 46.0744 146.273 40.0032C151.723 31.7991 152.933 29.1543 153.803 26.1673C155.803 19.3634 154.523 16.1689 154.133 15.3081C152.878 12.7152 150.74 10.6974 148.133 9.64512V9.64512Z" fill="#838383"/>
</mask>
<g mask="url(#mask0)">
<path d="M132.103 20.0273L140.793 23.7612" stroke="#DADADA" stroke-width="3" stroke-miterlimit="10" stroke-linecap="round"/>
<path d="M126.173 28.2107L135.383 32.0586" stroke="#DADADA" stroke-width="3" stroke-miterlimit="10" stroke-linecap="round"/>
<path d="M144.123 32.432L152.833 36.1762" stroke="#DADADA" stroke-width="3" stroke-miterlimit="10" stroke-linecap="round"/>
<path d="M140.223 42.3473L148.333 45.8218" stroke="#DADADA" stroke-width="3" stroke-miterlimit="10" stroke-linecap="round"/>
</g>
<path d="M155.938 9.78187C156.934 9.37225 157.421 8.20276 157.026 7.16975C156.631 6.13674 155.504 5.63138 154.508 6.04101L147.601 8.8816C146.605 9.29122 146.118 10.4607 146.513 11.4937C146.907 12.5267 148.035 13.0321 149.031 12.6225L155.938 9.78187Z" fill="#989898"/>
<path d="M146.523 11.4997C146.918 12.5327 148.046 13.038 149.042 12.6284C150.038 12.2188 150.525 11.0493 150.13 10.0163L147.391 2.85273C146.996 1.81972 145.869 1.31436 144.873 1.72399C143.877 2.13361 143.39 3.3031 143.785 4.33611L146.523 11.4997Z" fill="#989898"/>
<path d="M174.336 17.0922L161.52 42.8862H158.478L151.962 17.0922H154.662C154.962 17.0922 155.196 17.1702 155.364 17.3262C155.544 17.4822 155.652 17.6742 155.688 17.9022L160.008 36.3342C160.104 36.7182 160.194 37.1442 160.278 37.6122C160.362 38.0682 160.434 38.5482 160.494 39.0522C160.662 38.5482 160.836 38.0682 161.016 37.6122C161.196 37.1442 161.388 36.7182 161.592 36.3342L170.394 17.9022C170.49 17.6982 170.646 17.5122 170.862 17.3442C171.09 17.1762 171.348 17.0922 171.636 17.0922H174.336ZM182.474 26.8842C182.21 26.8242 181.946 26.7882 181.682 26.7762C181.43 26.7522 181.178 26.7402 180.926 26.7402C180.206 26.7402 179.51 26.8602 178.838 27.1002C178.166 27.3282 177.536 27.6522 176.948 28.0722C176.36 28.4922 175.826 28.9962 175.346 29.5842C174.866 30.1602 174.452 30.7962 174.104 31.4922C173.768 32.1882 173.504 32.9322 173.312 33.7242C173.12 34.5042 173.024 35.3082 173.024 36.1362C173.024 39.0282 173.948 40.4742 175.796 40.4742C176.384 40.4742 176.96 40.2942 177.524 39.9342C178.088 39.5622 178.622 39.0522 179.126 38.4042C179.642 37.7442 180.116 36.9702 180.548 36.0822C180.98 35.1822 181.364 34.1982 181.7 33.1302L182.474 26.8842ZM181.25 38.0802C180.818 38.8482 180.35 39.5442 179.846 40.1682C179.354 40.7922 178.826 41.3262 178.262 41.7702C177.71 42.2022 177.122 42.5382 176.498 42.7782C175.886 43.0182 175.25 43.1382 174.59 43.1382C173.87 43.1382 173.216 43.0002 172.628 42.7242C172.04 42.4362 171.536 42.0222 171.116 41.4822C170.708 40.9302 170.39 40.2582 170.162 39.4662C169.934 38.6622 169.82 37.7442 169.82 36.7122C169.82 35.6322 169.952 34.5822 170.216 33.5622C170.492 32.5302 170.876 31.5582 171.368 30.6462C171.872 29.7342 172.472 28.9002 173.168 28.1442C173.864 27.3762 174.638 26.7162 175.49 26.1642C176.354 25.6002 177.278 25.1682 178.262 24.8682C179.246 24.5562 180.278 24.4002 181.358 24.4002C182.138 24.4002 182.894 24.4662 183.626 24.5982C184.37 24.7182 185.102 24.9342 185.822 25.2462L183.644 42.8862H181.988C181.568 42.8862 181.28 42.7782 181.124 42.5622C180.98 42.3462 180.908 42.0822 180.908 41.7702L181.25 38.0802ZM191.698 29.2602C192.67 27.6522 193.768 26.4402 194.992 25.6242C196.216 24.7962 197.476 24.3822 198.772 24.3822C199.54 24.3822 200.212 24.5382 200.788 24.8502C201.376 25.1502 201.85 25.5942 202.21 26.1822C202.582 26.7702 202.834 27.4962 202.966 28.3602C203.098 29.2122 203.098 30.1842 202.966 31.2762L201.598 42.8862H198.412L199.78 31.2762C199.948 29.8362 199.858 28.7742 199.51 28.0902C199.162 27.3942 198.52 27.0462 197.584 27.0462C197.008 27.0462 196.42 27.2022 195.82 27.5142C195.232 27.8262 194.662 28.2702 194.11 28.8462C193.558 29.4222 193.042 30.1182 192.562 30.9342C192.094 31.7382 191.692 32.6382 191.356 33.6342L190.312 42.8862H187.108L189.304 24.6342H190.888C191.608 24.6342 191.968 24.9942 191.968 25.7142L191.698 29.2602ZM218.6 39.6102C217.976 40.2942 217.382 40.8642 216.818 41.3202C216.254 41.7762 215.69 42.1422 215.126 42.4182C214.562 42.6822 213.974 42.8682 213.362 42.9762C212.762 43.0842 212.114 43.1382 211.418 43.1382C210.362 43.1382 209.426 42.9582 208.61 42.5982C207.806 42.2382 207.128 41.7342 206.576 41.0862C206.036 40.4262 205.622 39.6402 205.334 38.7282C205.058 37.8042 204.92 36.7902 204.92 35.6862C204.92 34.2102 205.148 32.7942 205.604 31.4382C206.072 30.0822 206.72 28.8822 207.548 27.8382C208.376 26.7942 209.36 25.9602 210.5 25.3362C211.652 24.7122 212.906 24.4002 214.262 24.4002C215.474 24.4002 216.488 24.6162 217.304 25.0482C218.12 25.4682 218.834 26.0862 219.446 26.9022L218.438 28.1082C218.354 28.2042 218.258 28.2822 218.15 28.3422C218.054 28.4022 217.94 28.4322 217.808 28.4322C217.64 28.4322 217.472 28.3602 217.304 28.2162C217.148 28.0602 216.938 27.8922 216.674 27.7122C216.41 27.5202 216.08 27.3522 215.684 27.2082C215.3 27.0522 214.802 26.9742 214.19 26.9742C213.362 26.9742 212.582 27.2022 211.85 27.6582C211.118 28.1022 210.476 28.7142 209.924 29.4942C209.372 30.2742 208.934 31.1982 208.61 32.2662C208.298 33.3342 208.142 34.4802 208.142 35.7042C208.142 36.4482 208.226 37.1262 208.394 37.7382C208.562 38.3382 208.814 38.8542 209.15 39.2862C209.486 39.7062 209.894 40.0362 210.374 40.2762C210.866 40.5042 211.436 40.6182 212.084 40.6182C212.888 40.6182 213.56 40.4982 214.1 40.2582C214.652 40.0182 215.114 39.7602 215.486 39.4842C215.858 39.1962 216.17 38.9322 216.422 38.6922C216.686 38.4522 216.944 38.3322 217.196 38.3322C217.424 38.3322 217.628 38.4342 217.808 38.6382L218.6 39.6102ZM226.766 40.6362C227.642 40.6362 228.434 40.3962 229.142 39.9162C229.862 39.4362 230.474 38.8002 230.978 38.0082C231.494 37.2042 231.89 36.2802 232.166 35.2362C232.442 34.1922 232.58 33.1002 232.58 31.9602C232.58 30.2802 232.244 29.0202 231.572 28.1802C230.912 27.3282 229.958 26.9022 228.71 26.9022C227.822 26.9022 227.018 27.1422 226.298 27.6222C225.59 28.0902 224.984 28.7202 224.48 29.5122C223.976 30.3042 223.586 31.2222 223.31 32.2662C223.034 33.3102 222.896 34.4022 222.896 35.5422C222.896 37.2222 223.226 38.4942 223.886 39.3582C224.546 40.2102 225.506 40.6362 226.766 40.6362ZM226.46 43.1382C225.464 43.1382 224.552 42.9702 223.724 42.6342C222.896 42.2862 222.182 41.7882 221.582 41.1402C220.982 40.4922 220.514 39.7002 220.178 38.7642C219.842 37.8282 219.674 36.7602 219.674 35.5602C219.674 34.0242 219.914 32.5782 220.394 31.2222C220.874 29.8662 221.534 28.6842 222.374 27.6762C223.214 26.6562 224.198 25.8522 225.326 25.2642C226.466 24.6762 227.69 24.3822 228.998 24.3822C229.994 24.3822 230.906 24.5562 231.734 24.9042C232.562 25.2402 233.276 25.7322 233.876 26.3802C234.476 27.0282 234.944 27.8202 235.28 28.7562C235.616 29.6922 235.784 30.7542 235.784 31.9422C235.784 33.4662 235.544 34.9062 235.064 36.2622C234.584 37.6182 233.924 38.8062 233.084 39.8262C232.256 40.8462 231.272 41.6562 230.132 42.2562C228.992 42.8442 227.768 43.1382 226.46 43.1382ZM253.57 24.6522L251.374 42.8862H249.79C249.01 42.8862 248.62 42.5022 248.62 41.7342L248.89 38.4042C247.93 39.9642 246.844 41.1462 245.632 41.9502C244.432 42.7422 243.196 43.1382 241.924 43.1382C241.156 43.1382 240.478 42.9882 239.89 42.6882C239.302 42.3762 238.822 41.9262 238.45 41.3382C238.09 40.7502 237.844 40.0302 237.712 39.1782C237.58 38.3262 237.586 37.3482 237.73 36.2442L239.098 24.6522H242.284L240.916 36.2442C240.748 37.6722 240.832 38.7342 241.168 39.4302C241.516 40.1262 242.164 40.4742 243.112 40.4742C243.664 40.4742 244.234 40.3242 244.822 40.0242C245.41 39.7242 245.974 39.2982 246.514 38.7462C247.054 38.1942 247.558 37.5282 248.026 36.7482C248.506 35.9562 248.914 35.0802 249.25 34.1202L250.384 24.6522H253.57ZM271.599 24.6522L262.455 42.8862H259.791L255.075 24.6522H257.667C257.907 24.6522 258.099 24.7182 258.243 24.8502C258.387 24.9822 258.483 25.1382 258.531 25.3182L261.231 37.0542C261.303 37.5102 261.363 37.9602 261.411 38.4042C261.459 38.8482 261.501 39.2982 261.537 39.7542C261.669 39.3102 261.813 38.8662 261.969 38.4222C262.125 37.9782 262.305 37.5222 262.509 37.0542L268.143 25.3182C268.239 25.1262 268.371 24.9702 268.539 24.8502C268.707 24.7182 268.899 24.6522 269.115 24.6522H271.599ZM279.692 26.7042C278.936 26.7042 278.24 26.8602 277.604 27.1722C276.968 27.4842 276.404 27.9162 275.912 28.4682C275.42 29.0082 275 29.6502 274.652 30.3942C274.304 31.1262 274.034 31.9182 273.842 32.7702C275.69 32.5422 277.172 32.2842 278.288 31.9962C279.404 31.6962 280.262 31.3782 280.862 31.0422C281.462 30.6942 281.858 30.3222 282.05 29.9262C282.242 29.5302 282.338 29.1162 282.338 28.6842C282.338 28.4682 282.29 28.2462 282.194 28.0182C282.098 27.7782 281.942 27.5622 281.726 27.3702C281.522 27.1782 281.252 27.0222 280.916 26.9022C280.58 26.7702 280.172 26.7042 279.692 26.7042ZM284.768 39.5202C284.156 40.1562 283.556 40.7022 282.968 41.1582C282.38 41.6022 281.78 41.9742 281.168 42.2742C280.568 42.5742 279.932 42.7902 279.26 42.9222C278.6 43.0662 277.886 43.1382 277.118 43.1382C276.074 43.1382 275.138 42.9642 274.31 42.6162C273.482 42.2682 272.78 41.7762 272.204 41.1402C271.628 40.4922 271.184 39.7122 270.872 38.8002C270.56 37.8882 270.404 36.8682 270.404 35.7402C270.404 34.8042 270.5 33.8742 270.692 32.9502C270.896 32.0142 271.184 31.1262 271.556 30.2862C271.94 29.4462 272.402 28.6662 272.942 27.9462C273.494 27.2262 274.118 26.6082 274.814 26.0922C275.522 25.5642 276.296 25.1502 277.136 24.8502C277.988 24.5502 278.9 24.4002 279.872 24.4002C280.796 24.4002 281.594 24.5322 282.266 24.7962C282.938 25.0602 283.49 25.3962 283.922 25.8042C284.354 26.2122 284.672 26.6622 284.876 27.1542C285.092 27.6462 285.2 28.1142 285.2 28.5582C285.2 29.3502 285.038 30.0822 284.714 30.7542C284.39 31.4142 283.796 32.0142 282.932 32.5542C282.068 33.0822 280.88 33.5442 279.368 33.9402C277.856 34.3362 275.912 34.6542 273.536 34.8942C273.536 35.0262 273.53 35.1582 273.518 35.2902C273.518 35.4102 273.518 35.5362 273.518 35.6682C273.518 37.2762 273.866 38.5062 274.562 39.3582C275.27 40.1982 276.332 40.6182 277.748 40.6182C278.324 40.6182 278.834 40.5582 279.278 40.4382C279.734 40.3182 280.136 40.1742 280.484 40.0062C280.844 39.8262 281.156 39.6342 281.42 39.4302C281.696 39.2142 281.942 39.0222 282.158 38.8542C282.386 38.6742 282.596 38.5242 282.788 38.4042C282.98 38.2842 283.172 38.2242 283.364 38.2242C283.592 38.2242 283.796 38.3262 283.976 38.5302L284.768 39.5202ZM290.96 29.7282C291.44 28.7082 291.956 27.8262 292.508 27.0822C293.072 26.3262 293.66 25.7382 294.272 25.3182C294.884 24.8862 295.514 24.6282 296.162 24.5442C296.81 24.4482 297.47 24.5442 298.142 24.8322L297.566 27.9102C296.006 27.2862 294.626 27.5142 293.426 28.5942C292.238 29.6742 291.272 31.6242 290.528 34.4442L289.52 42.8862H286.388L288.584 24.6342H290.168C290.9 24.6342 291.266 24.9942 291.266 25.7142L290.96 29.7282Z" fill="white"/>
</svg>
